<svg xmlns="http://www.w3.org/2000/svg" width="30" height="30" fill="none"><path fill="#161823" fill-rule="evenodd" d="M12.0539 14.9998.72194 3.66785c-.40676-.40677-.40676-1.06636 0-1.47313L2.19517.721598c.40677-.406792 1.06625-.406792 1.47312 0L15.0002 12.0536 26.3321.721598c.4068-.406792 1.0664-.406792 1.4732 0l1.4731 1.473122c.4069.40677.4069 1.06636 0 1.47313L17.9465 14.9998l11.3319 11.332c.4069.4068.4069 1.0664 0 1.4731l-1.4731 1.4732c-.4068.4067-1.0664.4067-1.4732 0l-11.3319-11.332-11.33191 11.332c-.40687.4067-1.06635.4067-1.47312 0L.72194 27.8049c-.40676-.4067-.40676-1.0663 0-1.4731l11.33196-11.332Z" clip-rule="evenodd"/></svg>