<svg xmlns="http://www.w3.org/2000/svg" width="69" height="67" fill="none"><path fill="#fff" fill-rule="evenodd" d="M57.5533 52.3834C64.225 45.7 68.125 38.7385 68.125 30.6328 68.125 14.184 53.0659.849854 34.4875.849854 15.909.849854.849976 14.184.849976 30.6333.849976 47.0825 16.3962 58.375 34.975 58.375v5.4549c0 1.7285 1.792 2.8408 3.3119 2.0171 4.7478-2.5728 13.5458-7.7333 19.2664-13.4636ZM18.1475 26.6165c2.6552 0 4.8076 2.1368 4.8076 4.769 0 2.6375-2.1524 4.7743-4.8076 4.7743-2.6507 0-4.8032-2.1368-4.8032-4.7743 0-2.6322 2.1525-4.769 4.8032-4.769Zm21.1456 4.769c0-2.6322-2.1517-4.769-4.8056-4.769-2.6536 0-4.8053 2.1368-4.8053 4.769.0002 2.6375 2.1518 4.7743 4.8053 4.7743 2.6539 0 4.8056-2.1368 4.8056-4.7743Zm11.5338-4.769c2.6547 0 4.804 2.1368 4.804 4.769 0 2.6375-2.1493 4.7743-4.804 4.7743s-4.8071-2.1368-4.8067-4.7743c0-2.6322 2.152-4.769 4.8067-4.769Z" clip-rule="evenodd"/><path fill="#fff" fill-rule="evenodd" d="M34.975 58.3745s18.6334-1.4398 26.4225-11.4133C53.6084 57.9319 45.8197 63.916 39.0041 65.9105c-6.8152 1.9949-4.0291-7.536-4.0291-7.536Z" clip-rule="evenodd" opacity=".1"/></svg>